<?xml version="1.0" encoding="UTF-8"?>
<!-- Generated by Pixelmator Pro 2.4.7 -->
<svg width="48" height="48" viewBox="0 0 48 48" xmlns="http://www.w3.org/2000/svg" xmlns:xlink="http://www.w3.org/1999/xlink">
    <g id="ElectronSoftwareFrameworkLogo-copy">
        <path id="Button-BG-copy" fill="#2f3242" stroke="none" d="M 11.25 0 L 36.75 0 C 42.963203 0 48 5.036797 48 11.25 L 48 36.75 C 48 42.963203 42.963203 48 36.75 48 L 11.25 48 C 5.036797 48 -0 42.963203 -0 36.75 L -0 11.25 C -0 5.036797 5.036797 0 11.25 0 Z"/>
        <g id="Group">
            <path id="Path" fill="#9feaf9" stroke="none" d="M 18.754507 14.523769 C 13.952125 13.649166 10.154909 14.564583 8.641526 17.185812 C 7.512259 19.14185 7.835065 21.735191 9.424533 24.507298 C 9.509969 24.664017 9.673512 24.762249 9.851998 24.76405 C 10.030485 24.765854 10.195978 24.670942 10.28456 24.515978 C 10.373142 24.361012 10.370947 24.170248 10.278823 24.017361 C 8.84725 21.520233 8.568581 19.282202 9.494524 17.678329 C 10.751767 15.500866 14.138643 14.684246 18.577961 15.492741 C 18.843391 15.536934 19.095158 15.359917 19.143391 15.095192 C 19.191622 14.830467 19.018465 14.576031 18.754507 14.523769 Z M 11.921845 27.876812 C 13.863667 30.010693 16.386465 32.012348 19.263647 33.673283 C 26.230009 37.695427 33.646416 38.770401 37.301437 36.278259 C 37.450233 36.180542 37.534721 36.010139 37.522423 35.832554 C 37.510124 35.654968 37.402958 35.497833 37.242115 35.421562 C 37.081272 35.345287 36.891788 35.36174 36.746498 35.4646 C 33.475227 37.695057 26.430378 36.673824 19.756166 32.820469 C 16.96504 31.209026 14.52202 29.270714 12.650374 27.213842 C 12.532146 27.082905 12.352915 27.0252 12.180501 27.062565 C 12.008087 27.099932 11.868827 27.22666 11.815415 27.394796 C 11.762005 27.562935 11.802602 27.746799 11.921845 27.876812 Z"/>
            <path id="path1" fill="#9feaf9" stroke="none" d="M 36.135418 27.27774 C 39.280006 23.562885 40.37788 19.826612 38.867634 17.210924 C 37.756466 15.286095 35.407261 14.269848 32.285019 14.229218 C 32.015778 14.229614 31.796749 14.446144 31.793266 14.715366 C 31.789783 14.984589 32.003136 15.206711 32.272278 15.214073 C 35.080208 15.250637 37.104206 16.126165 38.01482 17.703442 C 39.269112 19.876104 38.289982 23.207947 35.383621 26.641361 C 35.26757 26.775377 35.232494 26.96142 35.291782 27.128492 C 35.351074 27.295565 35.495575 27.417883 35.670147 27.448767 C 35.844715 27.479649 36.022411 27.41433 36.135418 27.27774 Z M 28.054008 14.687759 C 25.210808 15.296989 22.18441 16.488121 19.278049 18.166046 C 12.086572 22.318016 7.395362 28.44043 8.046884 32.879749 C 8.070524 33.055553 8.186875 33.205063 8.351487 33.27116 C 8.516099 33.337257 8.703538 33.309731 8.842195 33.199093 C 8.98085 33.088455 9.049301 32.911808 9.021395 32.736629 C 8.44282 28.794998 12.889709 22.991699 19.770569 19.019043 C 22.589951 17.391167 25.520319 16.23789 28.260288 15.650822 C 28.434814 15.616421 28.57723 15.490585 28.632858 15.321621 C 28.688488 15.15266 28.648685 14.966827 28.528732 14.835476 C 28.408777 14.704121 28.227316 14.647655 28.054008 14.687759 Z"/>
            <path id="path2" fill="#9feaf9" stroke="none" d="M 16.403269 35.957302 C 18.047585 40.548233 20.737326 43.375 23.761875 43.375 C 25.967775 43.375 28.008583 41.87122 29.60008 39.223953 C 29.693825 39.073032 29.699018 38.88332 29.613676 38.727493 C 29.528332 38.571667 29.365679 38.473885 29.188026 38.471603 C 29.010376 38.469318 28.845264 38.562897 28.755947 38.716476 C 27.325665 41.0956 25.568884 42.389961 23.761875 42.389961 C 21.24942 42.389961 18.850351 39.868828 17.33069 35.625443 C 17.274035 35.456318 17.130371 35.331039 16.955109 35.297928 C 16.779848 35.264816 16.60038 35.329048 16.485928 35.465851 C 16.371475 35.602646 16.33993 35.790634 16.403454 35.957302 Z M 31.421125 35.059242 C 32.272461 32.339401 32.729523 29.20183 32.729523 25.93222 C 32.729523 17.773619 29.873949 10.740589 25.806744 8.934689 C 25.559603 8.831173 25.275051 8.944218 25.166325 9.18911 C 25.057598 9.433998 25.164583 9.720879 25.407114 9.834774 C 29.034616 11.445667 31.744486 18.120249 31.744486 25.93222 C 31.744486 29.104324 31.301828 32.142723 30.481335 34.76506 C 30.425858 34.933815 30.465557 35.119362 30.58522 35.250648 C 30.704884 35.381931 30.885971 35.438606 31.059128 35.398968 C 31.232286 35.359325 31.370682 35.229511 31.42131 35.059242 Z M 40.696068 34.576881 C 40.696068 33.275131 39.640858 32.219917 38.339104 32.219917 C 37.037357 32.219917 35.982143 33.275131 35.982143 34.576881 C 35.982143 35.878628 37.037357 36.933842 38.339104 36.933842 C 39.640858 36.933842 40.696068 35.878628 40.696068 34.576881 Z M 39.711216 34.576881 C 39.711216 35.334675 39.096901 35.94899 38.339104 35.94899 C 37.58131 35.94899 36.966995 35.334675 36.966995 34.576881 C 36.966995 33.819084 37.58131 33.204773 38.339104 33.204773 C 39.096901 33.204773 39.711216 33.819084 39.711216 34.576881 Z M 9.150665 36.933842 C 10.4526 36.933842 11.507813 35.878628 11.507813 34.576881 C 11.507813 33.275131 10.452415 32.219917 9.150665 32.219917 C 7.849101 32.219917 6.793703 33.275131 6.793703 34.576881 C 6.793703 35.878628 7.849101 36.933842 9.150665 36.933842 Z M 9.150665 35.94899 C 8.39287 35.94899 7.778556 35.334675 7.778556 34.576881 C 7.778556 33.819084 8.39287 33.204773 9.150665 33.204773 C 9.90846 33.204773 10.522774 33.819084 10.522774 34.576881 C 10.522774 35.334675 9.90846 35.94899 9.150665 35.94899 Z"/>
            <path id="path3" fill="#9feaf9" stroke="none" d="M 23.761875 11.338924 C 25.063625 11.338924 26.118839 10.28371 26.118839 8.981964 C 26.118839 7.680214 25.063625 6.625 23.761875 6.625 C 22.460125 6.625 21.404911 7.680214 21.404911 8.981964 C 21.404911 10.28371 22.460125 11.338924 23.761875 11.338924 Z M 23.761875 10.354069 C 23.00408 10.354069 22.389765 9.739758 22.389765 8.981964 C 22.389765 8.224167 23.00408 7.609856 23.761875 7.609856 C 24.51967 7.609856 25.133984 8.224167 25.133984 8.981964 C 25.133984 9.739758 24.51967 10.354069 23.761875 10.354069 Z M 24.121799 27.599066 C 23.201212 27.79796 22.294291 27.212917 22.09503 26.292334 C 21.896339 25.371794 22.481304 24.464422 23.401766 24.265379 C 24.322351 24.066486 25.229275 24.651525 25.42872 25.572113 C 25.627611 26.492701 25.042572 27.399807 24.121799 27.599066 Z"/>
        </g>
    </g>
</svg>
