<?xml version="1.0" encoding="UTF-8"?>
<!-- Generated by Pixelmator Pro 2.4.7 -->
<svg width="48" height="48" viewBox="0 0 48 48" xmlns="http://www.w3.org/2000/svg" xmlns:xlink="http://www.w3.org/1999/xlink">
    <g id="ExpressJS">
        <path id="Path" fill="#e2e2e2" stroke="none" d="M 11.25 0 L 36.75 0 C 42.963203 0 48 5.036797 48 11.25 L 48 36.75 C 48 42.963203 42.963203 48 36.75 48 L 11.25 48 C 5.036797 48 0 42.963203 0 36.75 L 0 11.25 C -0 5.036797 5.036797 0 11.25 0 Z"/>
        <path id="expressjs" fill="#000000" stroke="none" d="M 44.0625 35.013069 C 42.605347 35.383614 41.704014 35.029343 40.895321 33.815048 L 35.144325 25.858297 L 34.313099 24.756668 L 27.59693 33.841335 C 26.829546 34.934204 26.024607 35.409904 24.592493 35.023083 L 33.192696 23.478533 L 25.185869 13.050629 C 26.562902 12.782734 27.514309 12.919186 28.359306 14.152256 L 34.324368 22.207905 L 40.333241 14.196072 C 41.10313 13.103207 41.930603 12.687595 43.312641 13.090691 L 40.208057 17.206766 L 36.001846 22.683607 C 35.501102 23.30953 35.569958 23.737665 36.030636 24.342306 L 44.0625 35.013069 Z M 4.013347 23.285748 L 4.716886 19.825636 C 6.632215 12.978024 14.481308 10.132568 19.894304 14.363819 C 23.057726 16.852495 23.843887 20.372694 23.687407 24.316019 L 5.856069 24.316019 C 5.588173 31.414001 10.696969 35.69783 17.210339 33.5121 C 19.494963 32.744717 20.8407 30.955826 21.514196 28.71752 C 21.855949 27.595863 22.421787 27.420603 23.475843 27.741077 C 22.937548 30.540213 21.723255 32.878666 19.156963 34.342079 C 15.322551 36.532814 9.849467 35.824268 6.970214 32.77977 C 5.255181 31.013411 4.546635 28.775105 4.228665 26.381569 C 4.178591 25.985985 4.078443 25.60918 4.003332 25.229868 C 4.010009 24.582245 4.013347 23.934622 4.013347 23.287001 Z M 5.888617 22.810045 L 22.002417 22.810045 C 21.897261 17.677462 18.701292 14.032078 14.33359 14.000782 C 9.539008 13.963226 6.096424 17.522234 5.888617 22.810045 Z"/>
    </g>
</svg>
