<?xml version="1.0" encoding="UTF-8"?>
<!-- Generated by Pixelmator Pro 2.4.7 -->
<svg width="48" height="48" viewBox="0 0 48 48" xmlns="http://www.w3.org/2000/svg" xmlns:xlink="http://www.w3.org/1999/xlink">
    <g id="Gmail-copy">
        <path id="background" fill="#d6daff" stroke="none" d="M 11.25 0 L 36.75 0 C 42.963203 0 48 5.036797 48 11.25 L 48 36.75 C 48 42.963203 42.963203 48 36.75 48 L 11.25 48 C 5.036797 48 0 42.963203 0 36.75 L 0 11.25 C -0 5.036797 5.036797 0 11.25 0 Z"/>
        <g id="Gmail">
            <path id="Path" fill="#4285f4" stroke="none" d="M 8.603693 37.268852 L 14.241477 37.268852 L 14.241477 23.577091 L 6.1875 17.536608 L 6.1875 34.852661 C 6.1875 36.189621 7.27076 37.268852 8.603693 37.268852"/>
            <path id="path1" fill="#34a853" stroke="none" d="M 33.571022 37.268852 L 39.208805 37.268852 C 40.545769 37.268852 41.625 36.185593 41.625 34.852661 L 41.625 17.536608 L 33.571022 23.577091"/>
            <path id="path2" fill="#fbbc04" stroke="none" d="M 33.571022 13.106922 L 33.571022 23.577091 L 41.625 17.536608 L 41.625 14.315018 C 41.625 11.326992 38.214142 9.623573 35.826138 11.415588"/>
            <path id="path3" fill="#ea4335" stroke="none" d="M 14.241477 23.577091 L 14.241477 13.106922 L 23.90625 20.355501 L 33.571022 13.106922 L 33.571022 23.577091 L 23.90625 30.82567"/>
            <path id="path4" fill="#c5221f" stroke="none" d="M 6.1875 14.315018 L 6.1875 17.536608 L 14.241477 23.577091 L 14.241477 13.106922 L 11.986364 11.415588 C 9.594332 9.623573 6.1875 11.326992 6.1875 14.315018"/>
        </g>
    </g>
</svg>
