<?xml version="1.0" encoding="UTF-8"?>
<!-- Generated by Pixelmator Pro 2.4.7 -->
<svg width="256" height="256" viewBox="0 0 256 256" xmlns="http://www.w3.org/2000/svg" xmlns:xlink="http://www.w3.org/1999/xlink">
    <g id="Gmail">
        <path id="background" fill="#d6daff" stroke="none" d="M 60 0 L 196 0 C 229.137085 0 256 26.862915 256 60 L 256 196 C 256 229.137085 229.137085 256 196 256 L 60 256 C 26.862915 256 0 229.137085 0 196 L 0 60 C -0 26.862915 26.862915 0 60 0 Z"/>
        <g id="g1">
            <path id="Path" fill="#4285f4" stroke="none" d="M 45.886364 198.767212 L 75.954544 198.767212 L 75.954544 125.744492 L 33 93.52858 L 33 185.880859 C 33 193.011307 38.777382 198.767212 45.886364 198.767212"/>
            <path id="path1" fill="#34a853" stroke="none" d="M 179.045456 198.767212 L 209.113632 198.767212 C 216.24411 198.767212 222 192.989822 222 185.880859 L 222 93.52858 L 179.045456 125.744492"/>
            <path id="path2" fill="#fbbc04" stroke="none" d="M 179.045456 69.90358 L 179.045456 125.744492 L 222 93.52858 L 222 76.346756 C 222 60.410629 203.808746 51.325729 191.072723 60.883133"/>
            <path id="path3" fill="#ea4335" stroke="none" d="M 75.954544 125.744492 L 75.954544 69.90358 L 127.5 108.562668 L 179.045456 69.90358 L 179.045456 125.744492 L 127.5 164.40358"/>
            <path id="path4" fill="#c5221f" stroke="none" d="M 33 76.346756 L 33 93.52858 L 75.954544 125.744492 L 75.954544 69.90358 L 63.927277 60.883133 C 51.169769 51.325729 33 60.410629 33 76.346756"/>
        </g>
    </g>
</svg>
