<?xml version="1.0" encoding="UTF-8"?>
<!-- Generated by Pixelmator Pro 2.4.7 -->
<svg width="48" height="48" viewBox="0 0 48 48" xmlns="http://www.w3.org/2000/svg" xmlns:xlink="http://www.w3.org/1999/xlink">
    <g id="Gotcha-copy">
        <path id="Path-copy-2" fill="#fedda6" stroke="none" d="M 11.25 0 L 36.75 0 C 42.963203 0 48 5.036797 48 11.25 L 48 36.75 C 48 42.963203 42.963203 48 36.75 48 L 11.25 48 C 5.036797 48 0 42.963203 0 36.75 L 0 11.25 C -0 5.036797 5.036797 0 11.25 0 Z"/>
        <g id="goal">
            <path id="Path" fill="#fcba7f" stroke="none" d="M 22.247108 10.61409 L 22.247108 10.61409 C 21.817055 10.61409 21.465191 10.262226 21.465191 9.832176 L 21.465191 6.70451 C 21.465191 6.274452 21.817055 5.922592 22.247108 5.922592 L 22.247108 5.922592 C 22.677162 5.922592 23.029024 6.274452 23.029024 6.70451 L 23.029024 9.832176 C 23.029024 10.262226 22.677162 10.61409 22.247108 10.61409 Z"/>
            <path id="path1" fill="#1f212b" stroke="none" d="M 22.247108 10.874729 C 21.67214 10.874729 21.204554 10.407143 21.204554 9.832176 L 21.204554 6.70451 C 21.204554 6.129539 21.67214 5.661957 22.247108 5.661957 C 22.822077 5.661957 23.289663 6.129539 23.289663 6.70451 L 23.289663 9.832176 C 23.289663 10.40662 22.822077 10.874729 22.247108 10.874729 Z M 22.247108 6.183231 C 21.959885 6.183231 21.72583 6.416763 21.72583 6.70451 L 21.72583 9.832176 C 21.72583 10.119915 21.959885 10.353451 22.247108 10.353451 C 22.534332 10.353451 22.768385 10.119915 22.768385 9.832176 L 22.768385 6.70451 C 22.768385 6.416763 22.534332 6.183231 22.247108 6.183231 Z"/>
            <path id="path2" fill="#fcba7f" stroke="none" d="M 11.142857 41.869884 L 11.142857 41.869884 C 10.817059 41.544086 10.817059 41.011341 11.142857 40.685539 L 17.53841 34.289989 C 17.864208 33.964191 18.396954 33.964191 18.722752 34.289989 L 18.722752 34.289989 C 19.04855 34.615788 19.04855 35.148529 18.722752 35.474331 L 12.327199 41.869884 C 12.0014 42.195683 11.468655 42.195683 11.142857 41.869884 Z"/>
            <path id="path3" fill="#1f212b" stroke="none" d="M 11.735027 42.375 C 11.441028 42.375 11.165271 42.260841 10.958845 42.054417 L 10.958845 42.054417 L 10.958845 42.054417 L 10.958845 42.054417 C 10.752419 41.847992 10.63826 41.572235 10.63826 41.278233 C 10.63826 40.984753 10.751899 40.708477 10.958845 40.502052 L 17.354399 34.106499 C 17.767771 33.693123 18.493912 33.693123 18.907284 34.106499 C 19.11371 34.312927 19.227869 34.58868 19.227869 34.882683 C 19.227869 35.176159 19.114231 35.452438 18.907284 35.658863 L 12.511209 42.053894 C 12.304784 42.260841 12.029028 42.375 11.735027 42.375 Z M 18.130581 34.306671 C 17.97576 34.306671 17.831367 34.366096 17.722942 34.474518 L 11.327389 40.870075 C 11.218963 40.9785 11.159537 41.12289 11.159537 41.277714 C 11.159537 41.432529 11.218963 41.576927 11.327389 41.685352 L 11.327389 41.685352 C 11.543718 41.902203 11.926337 41.902203 12.142667 41.685352 L 18.538219 35.290321 C 18.646646 35.181892 18.70607 35.037498 18.70607 34.882683 C 18.70607 34.727859 18.646646 34.583466 18.538219 34.47504 C 18.429794 34.366615 18.2854 34.306671 18.130581 34.306671 Z"/>
            <path id="path4" fill="#fcba7f" stroke="none" d="M 33.867947 41.869884 L 33.867947 41.869884 C 34.193745 41.544086 34.193745 41.011341 33.867947 40.685539 L 27.472393 34.290512 C 27.146595 33.964714 26.61385 33.964714 26.288052 34.290512 L 26.288052 34.290512 C 25.962254 34.61631 25.962254 35.149052 26.288052 35.47485 L 32.683605 41.870407 C 33.009403 42.195683 33.542667 42.195683 33.867947 41.869884 Z"/>
            <path id="path5" fill="#1f212b" stroke="none" d="M 33.275772 42.375 C 32.982296 42.375 32.70602 42.260841 32.499592 42.054417 L 26.10404 35.658863 C 25.897615 35.452438 25.783455 35.176159 25.783455 34.882683 C 25.783455 34.58868 25.897093 34.312927 26.10404 34.106499 C 26.517412 33.693123 27.243553 33.693123 27.656925 34.106499 L 34.052479 40.502052 C 34.259426 40.708477 34.373062 40.984753 34.373062 41.278233 C 34.373062 41.572235 34.258904 41.848511 34.052479 42.054417 C 33.845531 42.260841 33.569775 42.375 33.275772 42.375 Z M 26.880743 34.306149 C 26.732702 34.306149 26.58518 34.361927 26.472584 34.474518 C 26.364159 34.582947 26.304731 34.727341 26.304731 34.882156 C 26.304731 35.03698 26.364159 35.181374 26.472584 35.289799 L 32.868134 41.685352 C 33.085506 41.902725 33.467083 41.90168 33.683414 41.685352 L 33.683414 41.685352 C 33.79184 41.576927 33.851265 41.432529 33.851265 41.277714 C 33.851265 41.12289 33.79184 40.9785 33.683414 40.870075 L 27.288382 34.474518 C 27.175787 34.36245 27.028265 34.306149 26.880743 34.306149 Z"/>
            <path id="path6" fill="#f37e98" stroke="none" d="M 34.149437 14.477795 L 32.050774 12.391125 C 29.450119 10.266918 26.127497 8.992916 22.507746 8.992916 C 14.170435 8.992916 7.411552 15.751797 7.411552 24.089109 C 7.411552 32.426422 14.170435 39.185307 22.507746 39.185307 C 30.84506 39.185307 37.603939 32.426422 37.603939 24.089109 C 37.60342 20.437563 36.307003 17.088877 34.149437 14.477795 Z M 22.702183 33.748901 C 17.376293 33.748901 13.058551 29.431162 13.058551 24.10527 C 13.058551 23.397375 13.134657 22.707205 13.279572 22.042576 L 14.690671 18.735592 C 16.421833 16.157873 19.363924 14.461639 22.702183 14.461639 C 28.028074 14.461639 32.345818 18.779379 32.345818 24.10527 C 32.345818 29.431162 28.028595 33.748901 22.702183 33.748901 Z"/>
            <path id="path7" fill="#1f212b" stroke="none" d="M 22.573429 39.507973 C 13.961926 39.507973 6.955956 32.502007 6.955956 23.890505 C 6.955956 15.278999 13.961926 8.273552 22.573429 8.273552 C 26.164509 8.273552 29.67062 9.522533 32.446423 11.789047 C 32.669529 11.971497 32.70237 12.299377 32.520443 12.522484 C 32.33852 12.746113 32.010117 12.777912 31.787008 12.596504 C 29.1973 10.481163 25.925241 9.316109 22.57395 9.316109 C 14.537416 9.316109 7.999032 15.85397 7.999032 23.890505 C 7.999032 31.927036 14.537416 38.46542 22.57395 38.46542 C 30.610481 38.46542 37.148342 31.927036 37.148342 23.890505 C 37.148342 20.508976 35.964005 17.213461 33.813736 14.611244 C 33.630241 14.389179 33.661522 14.060776 33.883583 13.877804 C 34.105129 13.693798 34.433529 13.725594 34.617542 13.947659 C 36.922112 16.735971 38.190899 20.267105 38.190899 23.890505 C 38.190899 32.501488 31.184933 39.507973 22.573429 39.507973 Z"/>
            <path id="path8" fill="#1f212b" stroke="none" d="M 13.858711 20.469881 C 13.825351 20.469881 13.791468 20.463627 13.759149 20.450071 C 13.626223 20.395338 13.563147 20.242605 13.617883 20.109678 C 13.679393 19.962156 13.74403 19.816198 13.812318 19.671804 C 13.873828 19.542528 14.029169 19.487272 14.159489 19.548262 C 14.289808 19.610294 14.345063 19.765635 14.283031 19.895954 C 14.218392 20.032009 14.157405 20.169626 14.099543 20.309326 C 14.057839 20.409412 13.960881 20.469881 13.858711 20.469881 Z"/>
            <g id="Group">
                <path id="path9" fill="#fefdef" stroke="none" d="M 14.756351 18.536985 C 16.487513 15.959267 19.429604 14.263031 22.767864 14.263031 C 28.093756 14.263031 32.411495 18.580772 32.411495 23.906664 C 32.411495 29.232553 28.093756 33.550297 22.767864 33.550297 C 17.441973 33.550297 13.124231 29.232553 13.124231 23.906664 C 13.124231 23.198767 13.200339 22.508598 13.345254 21.843967"/>
                <path id="path10" fill="#1f212b" stroke="none" d="M 22.768385 33.810936 C 17.306963 33.810936 12.864115 29.368088 12.864115 23.906664 C 12.864115 23.192514 12.940221 22.479927 13.091392 21.788713 C 13.122147 21.647448 13.261849 21.559874 13.401552 21.589584 C 13.542297 21.62034 13.631434 21.759001 13.600679 21.899746 C 13.457849 22.554991 13.385392 23.230045 13.385392 23.907185 C 13.385392 29.080862 17.594707 33.29018 22.768385 33.29018 C 27.942066 33.29018 32.151379 29.080862 32.151379 23.907185 C 32.151379 18.733505 27.942066 14.524189 22.768385 14.524189 C 19.63603 14.524189 16.721567 16.078642 14.973203 18.682941 C 14.892926 18.802835 14.730809 18.834635 14.611437 18.754358 C 14.492064 18.674082 14.460265 18.511963 14.540542 18.393112 C 16.386385 15.644413 19.461924 14.003437 22.768385 14.003437 C 28.229809 14.003437 32.672657 18.446283 32.672657 23.907705 C 32.672657 29.369129 28.229288 33.810936 22.768385 33.810936 Z"/>
            </g>
            <g id="g1">
                <path id="path11" fill="#f37e98" stroke="none" d="M 22.507746 19.475805 C 20.204597 19.475805 18.337526 21.342876 18.337526 23.646025 C 18.337526 25.949173 20.204597 27.816244 22.507746 27.816244 C 24.810894 27.816244 26.677965 25.949173 26.677965 23.646025 C 26.677965 21.342876 24.810894 19.475805 22.507746 19.475805 Z"/>
                <path id="path12" fill="#1f212b" stroke="none" d="M 22.507746 28.076883 C 20.064518 28.076883 18.076889 26.089252 18.076889 23.646025 C 18.076889 21.202797 20.064518 19.215166 22.507746 19.215166 C 24.950974 19.215166 26.938604 21.202797 26.938604 23.646025 C 26.938604 26.089252 24.950974 28.076883 22.507746 28.076883 Z M 22.507746 19.736444 C 20.351744 19.736444 18.598166 21.490021 18.598166 23.646025 C 18.598166 25.802029 20.351744 27.555605 22.507746 27.555605 C 24.663752 27.555605 26.417328 25.802029 26.417328 23.646025 C 26.417328 21.490021 24.663229 19.736444 22.507746 19.736444 Z"/>
            </g>
            <g id="g2">
                <path id="path13" fill="#fcba7f" stroke="none" d="M 38.084042 9.082054 L 37.382401 8.380413 L 22.282034 23.479736 L 22.290373 23.488077 C 22.19915 23.576694 22.141809 23.699196 22.141809 23.835768 C 22.141809 24.104229 22.359703 24.322123 22.628162 24.322123 C 22.765259 24.322123 22.887758 24.26478 22.975855 24.173557 L 22.984194 24.181898 L 38.084042 9.082054 Z"/>
                <path id="path14" fill="#1f212b" stroke="none" d="M 22.628162 24.58276 C 22.216352 24.58276 21.88117 24.247578 21.88117 23.835768 C 21.88117 23.662706 21.940077 23.499023 22.049025 23.366098 C 22.060492 23.340557 22.077171 23.316578 22.098022 23.295725 L 37.197865 8.195881 C 37.299515 8.094234 37.46476 8.094234 37.56641 8.195881 L 38.268047 8.897526 C 38.317051 8.946522 38.344158 9.012722 38.344158 9.082054 C 38.344158 9.151386 38.316528 9.217587 38.268047 9.266586 L 23.168205 24.36591 C 23.146313 24.388323 23.12077 24.405525 23.093662 24.418036 C 22.961781 24.524378 22.799141 24.58276 22.628162 24.58276 Z M 22.516609 23.614225 C 22.505142 23.636641 22.490023 23.657492 22.471779 23.675217 C 22.426949 23.718483 22.402449 23.775301 22.402449 23.835768 C 22.402449 24.020302 22.65579 24.12977 22.788715 23.992153 C 22.808002 23.972343 22.829895 23.955664 22.853876 23.943153 L 37.714973 9.081535 L 37.381878 8.748436 L 22.516609 23.614225 Z"/>
            </g>
            <g id="g3">
                <path id="path15" fill="#f69272" stroke="none" d="M 37.585178 12.209198 L 35.102333 12.06324 L 38.096027 9.070065 L 40.57835 9.216022 Z"/>
                <path id="path16" fill="#1f212b" stroke="none" d="M 37.584656 12.469837 C 37.579441 12.469837 37.574226 12.469837 37.569538 12.469315 L 35.087215 12.323357 C 34.984524 12.317104 34.895382 12.251423 34.858894 12.156025 C 34.822403 12.059589 34.84586 11.951687 34.91832 11.879227 L 37.912018 8.886055 C 37.965187 8.833408 38.03973 8.803173 38.111664 8.809948 L 40.593987 8.955383 C 40.696678 8.961639 40.78582 9.027317 40.822308 9.122711 C 40.858799 9.218109 40.835342 9.327057 40.762886 9.399513 L 37.769188 12.393208 C 37.720184 12.44273 37.653984 12.469837 37.584656 12.469837 Z M 35.697109 11.837528 L 37.483006 11.942303 L 39.983051 9.441734 L 38.197155 9.337479 L 35.697109 11.837528 Z"/>
                <g id="g4">
                    <path id="path17" fill="#f69272" stroke="none" d="M 34.254734 8.878757 L 34.400692 11.361603 L 37.393867 8.367905 L 37.24791 5.885578 Z"/>
                    <path id="path18" fill="#1f212b" stroke="none" d="M 34.400692 11.621719 C 34.369415 11.621719 34.338139 11.615986 34.307903 11.605038 C 34.21199 11.568546 34.146309 11.478889 34.140575 11.376717 L 33.994617 8.894394 C 33.990444 8.819855 34.017551 8.747395 34.070721 8.694744 L 37.064419 5.70105 C 37.136879 5.628071 37.245304 5.606178 37.341217 5.641624 C 37.43713 5.678112 37.502811 5.767773 37.508549 5.869942 L 37.654503 8.352787 C 37.658676 8.427326 37.631569 8.49979 37.5784 8.552437 L 34.584702 11.545612 C 34.53466 11.595654 34.468456 11.621719 34.400692 11.621719 Z M 34.521629 8.980404 L 34.626404 10.766823 L 37.126972 8.266777 L 37.022198 6.479839 L 34.521629 8.980404 Z"/>
                </g>
            </g>
        </g>
    </g>
</svg>
