<?xml version="1.0" encoding="UTF-8"?>
<!-- Generated by Pixelmator Pro 2.4.7 -->
<svg width="48" height="48" viewBox="0 0 48 48" xmlns="http://www.w3.org/2000/svg" xmlns:xlink="http://www.w3.org/1999/xlink">
    <g id="GraphQL-copy">
        <path id="Path-copy-5" fill="#e2e2e2" stroke="none" d="M 11.25 0 L 36.75 0 C 42.963203 0 48 5.036797 48 11.25 L 48 36.75 C 48 42.963203 42.963203 48 36.75 48 L 11.25 48 C 5.036797 48 0 42.963203 0 36.75 L 0 11.25 C -0 5.036797 5.036797 0 11.25 0 Z"/>
        <g id="GraphQL">
            <g id="Group">
                <g id="g1">
                    <path id="Path" fill="#e535ab" stroke="none" d="M 9.190788 34.760193 L 7.697153 33.89782 L 24.336845 5.077869 L 25.830481 5.940247 Z"/>
                </g>
            </g>
            <g id="g2">
                <g id="g3">
                    <path id="path1" fill="#e535ab" stroke="none" d="M 7.355112 31.595379 L 40.634499 31.595379 L 40.634499 33.320129 L 7.355112 33.320129 Z"/>
                </g>
            </g>
            <g id="g4">
                <g id="g5">
                    <path id="path2" fill="#e535ab" stroke="none" d="M 24.659552 42.175137 L 8.013626 32.564323 L 8.876 31.070692 L 25.521925 40.681503 Z"/>
                </g>
            </g>
            <g id="g6">
                <g id="g7">
                    <path id="path3" fill="#e535ab" stroke="none" d="M 39.119865 17.126865 L 22.473936 7.516052 L 23.336311 6.022423 L 39.982239 15.633232 Z"/>
                </g>
            </g>
            <g id="g8">
                <g id="g9">
                    <path id="path4" fill="#e535ab" stroke="none" d="M 8.880613 17.120302 L 8.018237 15.626667 L 24.664164 6.015854 L 25.526541 7.509491 Z"/>
                </g>
            </g>
            <g id="g10">
                <g id="g11">
                    <path id="path5" fill="#e535ab" stroke="none" d="M 38.812954 34.760506 L 22.173262 5.940559 L 23.666895 5.078182 L 40.306587 33.898129 Z"/>
                </g>
            </g>
            <g id="g12">
                <g id="g13">
                    <path id="path6" fill="#e535ab" stroke="none" d="M 8.674651 14.482937 L 10.399402 14.482937 L 10.399402 33.704563 L 8.674651 33.704563 Z"/>
                </g>
            </g>
            <g id="g14">
                <g id="g15">
                    <path id="path7" fill="#e535ab" stroke="none" d="M 37.600597 14.482937 L 39.325348 14.482937 L 39.325348 33.704563 L 37.600597 33.704563 Z"/>
                </g>
            </g>
            <g id="g16">
                <g id="g17">
                    <path id="path8" fill="#e535ab" stroke="none" d="M 24.365929 41.445068 L 23.612648 40.140388 L 38.090103 31.78158 L 38.843384 33.086258 Z"/>
                </g>
            </g>
            <path id="path9" fill="#e535ab" stroke="none" d="M 41.611164 34.265625 C 40.613716 36.000767 38.390244 36.592999 36.655102 35.595554 C 34.91996 34.598106 34.327724 32.374634 35.325172 30.639492 C 36.32262 28.904352 38.546093 28.312119 40.281235 29.309563 C 42.026768 30.3174 42.618999 32.530487 41.611164 34.265625"/>
            <path id="path10" fill="#e535ab" stroke="none" d="M 12.664436 17.548008 C 11.66699 19.283148 9.443516 19.875381 7.708375 18.877937 C 5.973233 17.880491 5.381 15.657013 6.378446 13.921875 C 7.375892 12.186733 9.599367 11.594501 11.334508 12.591946 C 13.06965 13.599781 13.661883 15.812866 12.664436 17.548008"/>
            <path id="path11" fill="#e535ab" stroke="none" d="M 6.388836 34.265625 C 5.391389 32.530487 5.983624 30.3174 7.718764 29.309563 C 9.453906 28.312119 11.66699 28.904352 12.674827 30.639492 C 13.672273 32.374634 13.080039 34.587719 11.344897 35.595554 C 9.599367 36.592999 7.386282 36.000767 6.388836 34.265625"/>
            <path id="path12" fill="#e535ab" stroke="none" d="M 35.335564 17.548008 C 34.338116 15.812866 34.930351 13.599781 36.665489 12.591946 C 38.400635 11.594501 40.613716 12.186733 41.621555 13.921875 C 42.618999 15.657013 42.026768 17.8701 40.291622 18.877937 C 38.556484 19.875381 36.333012 19.283148 35.335564 17.548008"/>
            <path id="path13" fill="#e535ab" stroke="none" d="M 24 44.4375 C 21.994717 44.4375 20.373867 42.81665 20.373867 40.811367 C 20.373867 38.806084 21.994717 37.185234 24 37.185234 C 26.005283 37.185234 27.626133 38.806084 27.626133 40.811367 C 27.626133 42.806263 26.005283 44.4375 24 44.4375"/>
            <path id="path14" fill="#e535ab" stroke="none" d="M 24 11.002266 C 21.994717 11.002266 20.373867 9.381416 20.373867 7.376133 C 20.373867 5.37085 21.994717 3.75 24 3.75 C 26.005283 3.75 27.626133 5.37085 27.626133 7.376133 C 27.626133 9.381416 26.005283 11.002266 24 11.002266"/>
        </g>
    </g>
</svg>
