<?xml version="1.0" encoding="UTF-8"?>
<!-- Generated by Pixelmator Pro 2.4.7 -->
<svg width="48" height="48" viewBox="0 0 48 48" xmlns="http://www.w3.org/2000/svg" xmlns:xlink="http://www.w3.org/1999/xlink">
    <g id="MongoDB-copy">
        <path id="Path-copy" fill="#e2e2e2" stroke="none" d="M 11.25 0 L 36.75 0 C 42.963203 0 48 5.036797 48 11.25 L 48 36.75 C 48 42.963203 42.963203 48 36.75 48 L 11.25 48 C 5.036797 48 0 42.963203 0 36.75 L 0 11.25 C -0 5.036797 5.036797 0 11.25 0 Z"/>
        <path id="Path" fill="#001e2b" stroke="none" d="M 27.192091 9.721035 C 25.649706 7.891045 24.321529 6.032463 24.050196 5.646442 C 24.021624 5.617851 23.978767 5.617851 23.950211 5.646442 C 23.678862 6.032463 22.3507 7.891045 20.808302 9.721035 C 7.569478 26.605532 22.893398 38.000179 22.893398 38.000179 L 23.021923 38.085976 C 23.136164 39.844398 23.421799 42.375 23.421799 42.375 L 23.993053 42.375 L 24.564308 42.375 C 24.564308 42.375 24.849943 39.858696 24.964197 38.085976 L 25.092722 37.985878 C 25.106993 38.000179 40.430969 26.605532 27.192091 9.721035 Z M 23.993053 37.742783 C 23.993053 37.742783 23.307558 37.156643 23.121893 36.856495 L 23.121893 36.827751 L 23.950211 18.442112 C 23.950211 18.384914 24.03591 18.384914 24.03591 18.442112 L 24.864214 36.827751 L 24.864214 36.856495 C 24.678562 37.156643 23.993053 37.742783 23.993053 37.742783 Z"/>
    </g>
</svg>
