<?xml version="1.0" encoding="UTF-8"?>
<!-- Generated by Pixelmator Pro 2.4.7 -->
<svg width="48" height="48" viewBox="0 0 48 48" xmlns="http://www.w3.org/2000/svg" xmlns:xlink="http://www.w3.org/1999/xlink">
    <g id="NextJS-copy">
        <path id="Path" fill="#e2e2e2" stroke="none" d="M 11.25 0 L 36.75 0 C 42.963203 0 48 5.036797 48 11.25 L 48 36.75 C 48 42.963203 42.963203 48 36.75 48 L 11.25 48 C 5.036797 48 0 42.963203 0 36.75 L 0 11.25 C -0 5.036797 5.036797 0 11.25 0 Z"/>
        <path id="nextjs-copy" fill="#000000" stroke="none" d="M 15.9 16.4 L 16.926863 15.658367 C 16.605179 15.212982 16.033051 15.025742 15.510297 15.194767 C 14.987519 15.363819 14.633333 15.850597 14.633333 16.4 Z M 23.5 40.466667 C 14.405713 40.466667 7.033333 33.094414 7.033333 24 L 4.5 24 C 4.5 34.49332 13.006578 43 23.5 43 Z M 39.966667 24 C 39.966667 33.094414 32.594414 40.466667 23.5 40.466667 L 23.5 43 C 33.99332 43 42.5 34.49332 42.5 24 Z M 23.5 7.533333 C 32.594414 7.533333 39.966667 14.905716 39.966667 24 L 42.5 24 C 42.5 13.50658 33.99332 5 23.5 5 Z M 23.5 5 C 13.006578 5 4.5 13.50658 4.5 24 L 7.033333 24 C 7.033333 14.905716 14.405713 7.533333 23.5 7.533333 Z M 17.166666 35.400002 L 17.166666 16.4 L 14.633333 16.4 L 14.633333 35.400002 Z M 14.873138 17.141632 L 31.339907 39.941505 L 33.393429 38.458496 L 16.926863 15.658367 Z M 29.833334 15.133335 L 29.833334 30.333334 L 32.366665 30.333334 L 32.366665 15.133335 Z"/>
    </g>
</svg>
