<?xml version="1.0" encoding="UTF-8"?>
<!-- Generated by Pixelmator Pro 2.4.7 -->
<svg width="48" height="48" viewBox="0 0 48 48" xmlns="http://www.w3.org/2000/svg" xmlns:xlink="http://www.w3.org/1999/xlink">
    <g id="Python-logo-notext-copy">
        <path id="Button-BG" fill="#e2e2e2" stroke="none" d="M 11.25 1 L 36.75 1 C 42.963203 1 48 6.036797 48 12.25 L 48 37.75 C 48 43.963203 42.963203 49 36.75 49 L 11.25 49 C 5.036797 49 -0 43.963203 -0 37.75 L -0 12.25 C -0 6.036797 5.036797 1 11.25 1 Z"/>
        <g id="Logo">
            <linearGradient id="linearGradient1" x1="5.805495" y1="6.625001" x2="25.785612" y2="23.981169" gradientUnits="userSpaceOnUse">
                <stop offset="1e-05" stop-color="#5a9fd4" stop-opacity="1"/>
                <stop offset="1" stop-color="#306998" stop-opacity="1"/>
            </linearGradient>
            <path id="path1948" fill="url(#linearGradient1)" stroke="none" d="M 23.698088 6.625301 C 22.204729 6.63224 20.778606 6.759602 19.523764 6.981644 C 15.827155 7.634712 15.155994 9.001644 15.155994 11.522495 L 15.155994 14.851772 L 23.891533 14.851772 L 23.891533 15.961533 L 15.155994 15.961533 L 11.877622 15.961533 C 9.338831 15.961533 7.115794 17.487494 6.420456 20.39039 C 5.618392 23.717785 5.582817 25.794132 6.420456 29.268467 C 7.041409 31.85463 8.524329 33.697323 11.06312 33.697323 L 14.066597 33.697323 L 14.066597 29.706263 C 14.066597 26.822956 16.561302 24.27964 19.523764 24.27964 L 28.249121 24.27964 C 30.67795 24.27964 32.61689 22.279821 32.61689 19.840601 L 32.61689 11.522495 C 32.61689 9.155117 30.619736 7.376751 28.249121 6.981644 C 26.748486 6.731846 25.191446 6.618359 23.698088 6.625301 Z M 18.973974 9.302975 C 19.876295 9.302975 20.613161 10.05188 20.613161 10.972706 C 20.613159 11.89027 19.876295 12.632256 18.973974 12.632256 C 18.068419 12.632256 17.334787 11.89027 17.334787 10.972706 C 17.334787 10.05188 18.068419 9.302975 18.973974 9.302975 Z"/>
            <linearGradient id="linearGradient2" x1="28.588983" y1="38.406248" x2="21.454093" y2="28.214151" gradientUnits="userSpaceOnUse">
                <stop offset="1e-05" stop-color="#ffd43b" stop-opacity="1"/>
                <stop offset="1" stop-color="#ffe873" stop-opacity="1"/>
            </linearGradient>
            <path id="path1950" fill="url(#linearGradient2)" stroke="none" d="M 33.706287 15.961533 L 33.706287 19.840601 C 33.706287 22.847992 31.156601 25.379217 28.249121 25.379217 L 19.523764 25.379217 C 17.133741 25.379217 15.155994 27.424755 15.155994 29.818256 L 15.155994 38.13636 C 15.155994 40.503742 17.214596 41.89621 19.523764 42.575401 C 22.288944 43.388474 24.940607 43.535416 28.249121 42.575401 C 30.448326 41.93866 32.61689 40.657211 32.61689 38.13636 L 32.61689 34.807083 L 23.891533 34.807083 L 23.891533 33.697323 L 32.61689 33.697323 L 36.984661 33.697323 C 39.523453 33.697323 40.469509 31.926464 41.352425 29.268467 C 42.26445 26.532101 42.225643 23.900642 41.352425 20.39039 C 40.725002 17.863008 39.52668 15.961533 36.984661 15.961533 Z M 28.79891 37.026604 C 29.704468 37.026604 30.438095 37.768589 30.438095 38.68615 C 30.438095 39.606979 29.704464 40.355885 28.79891 40.355885 C 27.896589 40.355885 27.159723 39.606979 27.159723 38.68615 C 27.159723 37.768589 27.896585 37.026604 28.79891 37.026604 Z"/>
        </g>
    </g>
</svg>
