<?xml version="1.0" encoding="UTF-8"?>
<!-- Generated by Pixelmator Pro 2.4.7 -->
<svg width="48" height="48" viewBox="0 0 48 48" xmlns="http://www.w3.org/2000/svg" xmlns:xlink="http://www.w3.org/1999/xlink">
    <g id="React-copy">
        <path id="Path-copy-4" fill="#e2e2e2" stroke="none" d="M 11.25 0 L 36.75 0 C 42.963203 0 48 5.036797 48 11.25 L 48 36.75 C 48 42.963203 42.963203 48 36.75 48 L 11.25 48 C 5.036797 48 0 42.963203 0 36.75 L 0 11.25 C -0 5.036797 5.036797 0 11.25 0 Z"/>
        <path id="Path" fill="#61dafb" stroke="none" d="M 26.761364 23.768259 C 26.761364 25.569462 25.301203 27.029623 23.5 27.029623 C 21.698797 27.029623 20.238636 25.569462 20.238636 23.768259 C 20.238636 21.967058 21.698797 20.506895 23.5 20.506895 C 25.301203 20.506895 26.761364 21.967058 26.761364 23.768259 Z"/>
        <g id="Group">
            <path id="path1" fill="none" stroke="#61dafb" stroke-width="1.590909" stroke-linecap="round" stroke-linejoin="round" d="M 41 23.768259 C 41 27.458527 33.164982 30.450077 23.5 30.450077 C 13.835016 30.450077 6 27.458527 6 23.768259 C 6 20.077993 13.835016 17.086441 23.5 17.086441 C 33.164982 17.086441 41 20.077993 41 23.768259 Z"/>
            <path id="path2" fill="none" stroke="#61dafb" stroke-width="1.590909" stroke-linecap="round" stroke-linejoin="round" d="M 32.25 38.923706 C 29.054136 40.768837 22.545868 35.47929 17.713375 27.109167 C 12.880884 18.739048 11.554135 10.457951 14.75 8.612816 C 17.945864 6.767681 24.454132 12.057232 29.286623 20.427351 C 34.119118 28.797472 35.445866 37.078571 32.25 38.923706 Z"/>
            <path id="path3" fill="none" stroke="#61dafb" stroke-width="1.590909" stroke-linecap="round" stroke-linejoin="round" d="M 14.75 38.923706 C 11.554135 37.078571 12.880884 28.797472 17.713375 20.427351 C 22.545868 12.057232 29.054136 6.767681 32.25 8.612816 C 35.445866 10.457951 34.119118 18.739048 29.286623 27.109167 C 24.454132 35.47929 17.945864 40.768837 14.75 38.923706 Z"/>
        </g>
    </g>
</svg>
