<?xml version="1.0" encoding="UTF-8"?>
<!-- Generated by Pixelmator Pro 2.4.7 -->
<svg width="48" height="48" viewBox="0 0 48 48" xmlns="http://www.w3.org/2000/svg" xmlns:xlink="http://www.w3.org/1999/xlink">
    <g id="Telegram">
        <path id="Path-copy" fill="#34abe1" stroke="none" d="M 11.25 0 L 36.75 0 C 42.963203 0 48 5.036797 48 11.25 L 48 36.75 C 48 42.963203 42.963203 48 36.75 48 L 11.25 48 C 5.036797 48 0 42.963203 0 36.75 L 0 11.25 C -0 5.036797 5.036797 0 11.25 0 Z"/>
        <path id="Path-copy-3" fill="#c8daea" stroke="none" d="M 16.2458 25.7544 L 19.093201 33.635597 C 19.093201 33.635597 19.449202 34.373001 19.8304 34.373001 C 20.211599 34.373001 25.881401 28.4746 25.881401 28.4746 L 32.186401 16.296602 L 16.347401 23.720001 Z"/>
        <path id="Path-copy-2" fill="#a9c6d8" stroke="none" d="M 20.0212 27.775602 L 19.4746 33.584801 C 19.4746 33.584801 19.2458 35.364799 21.0254 33.584801 C 22.805 31.8048 24.5084 30.432199 24.5084 30.432199"/>
        <path id="path1" fill="#ffffff" stroke="none" d="M 16.297201 26.035599 L 10.44 24.127199 C 10.44 24.127199 9.74 23.843201 9.9654 23.1992 C 10.0118 23.066399 10.1054 22.953402 10.3854 22.759201 C 11.683201 21.854603 34.406601 13.687199 34.406601 13.687199 C 34.406601 13.687199 35.048199 13.471004 35.426598 13.614803 C 35.617184 13.673798 35.761238 13.830841 35.8036 14.025799 C 35.844486 14.194935 35.861584 14.368942 35.854397 14.542797 C 35.8526 14.693203 35.834396 14.8326 35.820599 15.051197 C 35.682198 17.284199 31.540602 33.949799 31.540602 33.949799 C 31.540602 33.949799 31.292803 34.924999 30.404999 34.958401 C 29.964178 34.972641 29.53648 34.807194 29.220003 34.5 C 27.477802 33.0014 21.4562 28.954599 20.125601 28.0646 C 20.064878 28.02322 20.025049 27.957571 20.016401 27.884602 C 19.997799 27.7908 20.0998 27.674601 20.0998 27.674601 C 20.0998 27.674601 30.585003 18.354601 30.864 17.3762 C 30.885599 17.3004 30.804003 17.263 30.694399 17.2962 C 29.998001 17.552399 17.9256 25.176199 16.593201 26.017599 C 16.497292 26.046618 16.39592 26.052782 16.297201 26.035599 Z"/>
    </g>
</svg>
