<?xml version="1.0" encoding="UTF-8"?>
<!-- Generated by Pixelmator Pro 2.4.7 -->
<svg width="256" height="256" viewBox="0 0 256 256" xmlns="http://www.w3.org/2000/svg" xmlns:xlink="http://www.w3.org/1999/xlink">
    <g id="Telegram">
        <path id="Path-copy" fill="#34abe1" stroke="none" d="M 60 0 L 196 0 C 229.137085 0 256 26.862915 256 60 L 256 196 C 256 229.137085 229.137085 256 196 256 L 60 256 C 26.862915 256 0 229.137085 0 196 L 0 60 C -0 26.862915 26.862915 0 60 0 Z"/>
        <path id="Path-copy-3" fill="#c8daea" stroke="none" d="M 86.644264 137.356812 L 101.830406 179.389862 C 101.830406 179.389862 103.729073 183.322662 105.762131 183.322662 C 107.795197 183.322662 138.034134 151.864532 138.034134 151.864532 L 171.660812 86.915207 L 87.186134 126.506668 Z"/>
        <path id="Path-copy-2" fill="#a9c6d8" stroke="none" d="M 106.779739 148.136536 L 103.864532 179.118927 C 103.864532 179.118927 102.644264 188.612274 112.135468 179.118927 C 121.626671 169.62561 130.711472 162.305054 130.711472 162.305054"/>
        <path id="path1" fill="#ffffff" stroke="none" d="M 86.918404 138.856537 L 55.68 128.678406 C 55.68 128.678406 51.946667 127.163742 53.1488 123.729065 C 53.396263 123.020798 53.895466 122.418137 55.388798 121.382401 C 62.310402 116.557877 183.501877 72.998398 183.501877 72.998398 C 183.501877 72.998398 186.923737 71.845352 188.941864 72.612274 C 189.958313 72.926926 190.726608 73.764481 190.952545 74.80426 C 191.170593 75.706314 191.26178 76.634354 191.223465 77.561584 C 191.213867 78.363739 191.116791 79.107193 191.043198 80.273056 C 190.305069 92.182388 168.216537 181.065582 168.216537 181.065582 C 168.216537 181.065582 166.894943 186.266663 162.159988 186.444809 C 159.808945 186.520752 157.527893 185.638367 155.840012 184 C 146.548279 176.007477 114.433067 154.42453 107.336533 149.677856 C 107.01268 149.457184 106.800262 149.107056 106.754135 148.717865 C 106.65493 148.21759 107.198936 147.59787 107.198936 147.59787 C 107.198936 147.59787 163.12001 97.891205 164.608002 92.673065 C 164.72319 92.268799 164.28801 92.069336 163.703461 92.246399 C 159.989334 93.612793 95.603195 134.273071 88.49707 138.760529 C 87.98555 138.915298 87.444908 138.948181 86.918404 138.856537 Z"/>
    </g>
</svg>
