<?xml version="1.0" encoding="UTF-8"?>
<!-- Generated by Pixelmator Pro 2.4.7 -->
<svg width="48" height="48" viewBox="0 0 48 48" xmlns="http://www.w3.org/2000/svg" xmlns:xlink="http://www.w3.org/1999/xlink">
    <g id="Whatsapp">
        <path id="Path-copy-4" fill="#31bf2f" stroke="none" d="M 11.25 0 L 36.75 0 C 42.963203 0 48 5.036797 48 11.25 L 48 36.75 C 48 42.963203 42.963203 48 36.75 48 L 11.25 48 C 5.036797 48 0 42.963203 0 36.75 L 0 11.25 C -0 5.036797 5.036797 0 11.25 0 Z"/>
        <path id="Path" fill="none" stroke="#fefefe" stroke-width="2.446906" stroke-linecap="round" stroke-linejoin="round" d="M 23.999964 9.478935 C 31.839409 9.478935 38.194492 15.888363 38.194492 23.794828 C 38.194492 31.701273 31.839409 38.110699 23.999964 38.110699 C 20.958166 38.110699 18.13999 37.145443 15.829889 35.502296 L 10.795944 37.097801 L 12.971096 32.806221 C 10.992039 30.345512 9.80551 27.210148 9.80551 23.794828 C 9.80551 15.888363 16.160591 9.478935 23.999964 9.478935 Z"/>
        <path id="path1" fill="#fefefe" fill-rule="evenodd" stroke="none" d="M 28.911196 31.91983 L 29.442152 31.88364 C 29.61241 31.788651 29.904959 31.733009 30.096111 31.646215 C 30.95566 31.255884 31.775522 30.389168 32.271729 29.620375 C 32.704906 28.949259 32.589291 28.854958 32.757805 28.487089 L 32.72213 27.96382 L 32.477367 27.613152 C 32.113022 27.210247 31.430798 26.698769 30.969393 26.367947 C 30.78479 26.235571 30.54015 26.076643 30.322622 25.941401 C 28.976158 25.104095 28.230103 24.499563 27.561655 25.82028 C 27.31415 26.309296 27.150843 26.860582 26.90914 27.322191 C 26.70612 27.709831 26.132906 28.222406 25.438133 27.901154 C 23.769905 27.129791 21.616385 25.49259 20.495407 24.0728 L 20.243618 23.747898 C 19.782278 23.136318 19.294121 22.509886 19.64036 21.777891 C 19.847075 21.340853 20.438051 21.198467 20.96957 20.862801 C 21.212179 20.709599 21.431715 20.55505 21.606791 20.405033 C 22.210711 19.887535 22.103148 19.610743 21.73151 18.916555 C 21.175352 17.877647 20.532772 16.983353 19.834253 16.335829 C 18.768332 15.347767 18.059242 15.504589 16.982924 16.505692 C 16.325266 17.117395 15.509958 17.981054 15.277747 19.161785 C 14.916606 20.998163 17.407387 24.184792 18.207966 25.173002 C 20.181274 27.608847 22.24979 29.137283 24.941017 30.544817 C 25.149664 30.653946 25.395042 30.76812 25.652382 30.892889 C 27.566278 31.820927 28.59004 31.789385 28.911196 31.91983 Z"/>
    </g>
</svg>
