<?xml version="1.0" encoding="UTF-8"?>
<!-- Generated by Pixelmator Pro 2.4.7 -->
<svg width="256" height="256" viewBox="0 0 256 256" xmlns="http://www.w3.org/2000/svg" xmlns:xlink="http://www.w3.org/1999/xlink">
    <g id="Whatsapp-copy">
        <g id="Whatsapp">
            <g id="2424346782016">
                <linearGradient id="linearGradient1" x1="109.798738" y1="1.114179" x2="146.201522" y2="255.244358" gradientUnits="userSpaceOnUse">
                    <stop offset="1e-05" stop-color="#5cf674" stop-opacity="1"/>
                    <stop offset="1" stop-color="#2dba29" stop-opacity="1"/>
                </linearGradient>
                <path id="Path" fill="url(#linearGradient1)" fill-rule="evenodd" stroke="none" d="M 52.442341 0.17926 L 203.557663 0.17926 C 217.466217 0.17926 230.805145 3.964966 240.639999 10.703568 C 250.474838 17.442154 256 26.58165 256 36.11145 L 256 220.24707 C 256 229.776901 250.474838 238.916367 240.639999 245.654968 C 230.805145 252.39357 217.466217 256.17926 203.557663 256.17926 L 52.442341 256.17926 C 38.533772 256.17926 25.194851 252.39357 15.360005 245.654968 C 5.525155 238.916367 -0 229.776901 -0 220.24707 L -0 36.11145 C -0 26.58165 5.525155 17.442154 15.360005 10.703568 C 25.194851 3.964966 38.533772 0.17926 52.442341 0.17926 Z"/>
                <path id="path1" fill="none" stroke="#fefefe" stroke-width="13.050165" stroke-linecap="round" stroke-linejoin="round" d="M 127.999809 51.827896 C 169.810181 51.827896 203.703964 86.011505 203.703964 128.179321 C 203.703964 170.347031 169.810181 204.53064 127.999809 204.53064 C 111.776886 204.53064 96.746613 199.382599 84.426079 190.619171 L 57.578369 199.128525 L 69.179176 176.240097 C 58.624207 163.116318 52.296051 146.394363 52.296051 128.179321 C 52.296051 86.011505 86.189819 51.827896 127.999809 51.827896 Z"/>
                <path id="path2" fill="#fefefe" fill-rule="evenodd" stroke="none" d="M 154.193054 171.512665 L 157.024811 171.319672 C 157.932861 170.813049 159.493103 170.516296 160.512589 170.053406 C 165.096863 167.971634 169.469452 163.349136 172.115891 159.248901 C 174.426163 155.669632 173.80954 155.166687 174.708282 153.204712 L 174.518036 150.41394 L 173.212631 148.543716 C 171.269455 146.394897 167.63092 143.667023 165.17009 141.902618 C 164.185547 141.196625 162.880798 140.348999 161.720642 139.627716 C 154.539505 135.162079 150.560547 131.937912 146.995499 138.981735 C 145.675461 141.589813 144.804504 144.530014 143.515411 146.991943 C 142.432632 149.059341 139.375504 151.793076 135.670044 150.079727 C 126.772827 145.96579 115.287384 137.234055 109.30883 129.661835 L 107.965965 127.929031 C 105.505486 124.667267 102.901978 121.326294 104.748581 117.422333 C 105.851067 115.091461 109.002937 114.332062 111.837708 112.54184 C 113.131622 111.724777 114.302483 110.900513 115.236214 110.100418 C 118.457123 107.340439 117.883453 105.864197 115.90139 102.16188 C 112.935211 96.621033 109.508118 91.851456 105.782677 88.397995 C 100.097763 83.128342 96.315956 83.964722 90.575592 89.30394 C 87.068092 92.566345 82.719772 97.172531 81.481316 103.469757 C 79.555229 113.263779 92.839401 130.259125 97.109146 135.529587 C 107.633461 148.520752 118.66555 156.672424 133.018753 164.17926 C 134.131546 164.761292 135.440231 165.370209 136.812714 166.035645 C 147.020157 170.985199 152.480209 170.816956 154.193054 171.512665 Z"/>
            </g>
        </g>
    </g>
</svg>
